<svg id="Layer_1" data-name="Layer 1" xmlns="http://www.w3.org/2000/svg" viewBox="0 0 122.4 122.4"><defs><style>.cls-1{fill:#159cf4;}.cls-2{fill:#fff;}</style></defs><circle class="cls-1" cx="61.2" cy="61.2" r="61.2"/><path class="cls-2" d="M111.4,61.8h0a2.28,2.28,0,0,1-1.2-.6,2.73,2.73,0,0,1-.9-1.2,3.58,3.58,0,0,1-.4-1.9V47.5a7.94,7.94,0,0,0-.6-3.2,6,6,0,0,0-3.7-3.5,7.46,7.46,0,0,0-2.6-.4H79.2V38.2a8,8,0,1,0-10.7-7.5,8.14,8.14,0,0,0,5.3,7.6v2.2H51.3a7.46,7.46,0,0,0-2.6.4,6.11,6.11,0,0,0-2.2,1.3A4.82,4.82,0,0,0,45,44.4a7.62,7.62,0,0,0-.6,3.2V58.3a3.58,3.58,0,0,1-.4,1.9,6.23,6.23,0,0,1-.9,1.2,3.38,3.38,0,0,1-1.2.6h0a1.59,1.59,0,0,0-1.2,1.5v2.1a1.59,1.59,0,0,0,1.2,1.5h0a2.28,2.28,0,0,1,1.2.6A2.54,2.54,0,0,1,44,69a4.14,4.14,0,0,1,.4,2.1v11a7.94,7.94,0,0,0,.6,3.2,6,6,0,0,0,3.7,3.5,7.46,7.46,0,0,0,2.6.4H94.6c1,0,1.9.2,2.2.9a5.83,5.83,0,0,1,.2,2.3v15.9a4.88,4.88,0,0,1-.3,2.1,2.05,2.05,0,0,1-2.1,1.1H59.5c-1,0-1.9-.4-2.1-1.1a5.34,5.34,0,0,1-.2-2.2v-4.7h0s.1-3-2.8-3-2.7,2.8-2.7,3h0v5.3a7.94,7.94,0,0,0,.6,3.2,6,6,0,0,0,3.7,3.5,7.46,7.46,0,0,0,2.6.4H95.7a7.46,7.46,0,0,0,2.6-.4,6.11,6.11,0,0,0,2.2-1.3A4.82,4.82,0,0,0,102,112a7.62,7.62,0,0,0,.6-3.2V91.6a7.94,7.94,0,0,0-.6-3.2,6,6,0,0,0-3.7-3.5,7.46,7.46,0,0,0-2.6-.4H52.4a2.83,2.83,0,0,1-2.3-1.3c-.3-.7-.1-5.9-.1-6.7V70.7a6.84,6.84,0,0,0-.6-3.1A7.21,7.21,0,0,0,48,65.7a4.25,4.25,0,0,0-1.7-1,12.44,12.44,0,0,0-1.6-.4v-.1A5.6,5.6,0,0,0,48,62.7a8.62,8.62,0,0,0,1.4-1.8,5.4,5.4,0,0,0,.6-2.7V48.1a8.58,8.58,0,0,1,.2-2.3c.3-.7,1-1,2.2-.9h48.7a2.09,2.09,0,0,1,2.1,1,5.83,5.83,0,0,1,.3,2.3V58.4a6,6,0,0,0,.6,2.7,8.62,8.62,0,0,0,1.4,1.8,6.19,6.19,0,0,0,1.7,1.1,3.43,3.43,0,0,0,1.6.4v.1a6.18,6.18,0,0,0-1.6.4,4.25,4.25,0,0,0-1.7,1,7.21,7.21,0,0,0-1.4,1.9,6.84,6.84,0,0,0-.6,3.1V78a2.61,2.61,0,0,0,2.8,2.6,2.54,2.54,0,0,0,2.8-2.6V71.1a4.14,4.14,0,0,1,.4-2.1,7.3,7.3,0,0,1,.9-1.3,3.38,3.38,0,0,1,1.2-.6h0a1.59,1.59,0,0,0,1.2-1.5V63.5A2.09,2.09,0,0,0,111.4,61.8ZM76.5,27.9a2.6,2.6,0,1,1-2.6,2.6A2.65,2.65,0,0,1,76.5,27.9Z" transform="translate(-15.4 -12.1)"/><path class="cls-2" d="M83.1,60.1a4.8,4.8,0,1,0,4.8-4.8A4.74,4.74,0,0,0,83.1,60.1Z" transform="translate(-15.4 -12.1)"/><path class="cls-2" d="M60.5,60.1a4.8,4.8,0,1,0,4.8-4.8A4.94,4.94,0,0,0,60.5,60.1Z" transform="translate(-15.4 -12.1)"/></svg>